<svg xmlns="http://www.w3.org/2000/svg" viewBox="0 0 64 64">
	<defs>
		<linearGradient id="g" x1="0" y1="0" x2="1" y2="1">
			<stop offset="0%" stop-color="#6EE7F9"/>
			<stop offset="100%" stop-color="#8B5CF6"/>
		</linearGradient>
	</defs>
	<rect width="64" height="64" rx="14" fill="url(#g)"/>
	<g fill="#fff">
		<path d="M20 20h24a2 2 0 0 1 2 2v4a2 2 0 0 1-2 2H20a2 2 0 0 1-2-2v-4a2 2 0 0 1 2-2z"/>
		<path d="M20 30h18a2 2 0 0 1 0 4H20a2 2 0 0 1 0-4z"/>
		<circle cx="20" cy="42" r="3"/>
		<rect x="26" y="39" width="18" height="6" rx="3"/>
	</g>
</svg>


